M48
INCH,TZ
VER,1
FMAT,2
DETECT,ON
ATC,ON
T1C0.12500
T2C0.01500
T3C0.03937
T4C0.07874
T5C0.03150
%
T1
X6.19000Y0.22000
Y3.72000
T2
X0.97000Y3.77000
X1.22000Y3.78000
X1.51000Y3.81000
X1.19000Y3.54000
X1.80000
X1.67000Y3.38000
X1.51000Y3.41000
X1.47000Y3.37000
X1.80000Y3.14000
X0.81000Y3.17000
X0.97000Y3.37000
X0.94000Y3.43000
X0.67000Y3.16000
X1.06000Y3.22000
X0.94000Y2.83000
X0.97000Y2.77000
X0.67000Y2.16000
X0.81000Y2.17000
X0.94000Y2.43000
X0.97000Y2.37000
X1.06000Y2.22000
X1.21000Y2.16000
X1.47000Y2.37000
X1.70000Y1.92000
X1.86000Y1.84000
X1.52000
X1.91000Y1.69000
X1.64000Y1.39000
X1.43000Y1.64000
X0.91000Y1.69000
X0.64000Y1.40000
X0.86000Y1.76000
X1.12000Y1.97000
X0.71000Y1.87000
X2.14000Y1.40000
X2.97000Y2.43000
X0.94000Y3.83000
X0.58000Y1.38000
X0.97000Y1.71000
X0.72000Y1.47000
X2.22000
X1.13000Y1.43000
X0.88000Y3.33000
Y3.73000
Y2.73000
Y2.33000
X0.94000Y3.67000
X1.06000Y3.33000
X0.94000Y2.67000
X1.06000Y2.33000
X1.44000Y3.27000
X1.75000Y2.29000
X1.38000Y2.33000
X1.28000Y3.62000
X1.67000Y3.78000
X1.22000Y1.47000
X2.93000Y2.52000
X2.20000Y2.44000
X2.13000Y2.52000
X2.15000Y2.76000
X3.10000Y1.24000
X3.03000Y1.32000
X2.97000Y1.48000
X2.81000Y1.51000
X2.72000Y2.16000
X3.00000Y2.24000
X2.60000Y2.44000
X2.53000Y2.52000
X2.87000Y2.84000
X2.93000
X1.44000Y2.26000
X3.98000Y2.86000
X4.10000
Y2.46000
X3.98000
Y2.06000
X4.10000
X4.00000Y1.74000
X4.10000
X4.00000Y2.14000
X4.10000
X4.00000Y2.54000
X4.10000
X3.98000Y1.66000
X4.10000
Y1.34000
X4.00000
X4.10000Y1.26000
Y0.94000
X1.13000Y1.05000
X1.43000Y1.02000
X1.72000Y1.47000
X2.46000Y1.60000
X1.88000Y1.53000
X2.97000Y1.32000
X3.03000Y1.48000
X3.75000Y1.13000
Y1.18000
Y1.43000
Y1.48000
Y1.53000
Y1.58000
Y1.83000
Y1.88000
Y1.93000
Y1.98000
Y2.22000
Y2.27000
Y2.32000
Y2.37000
Y2.60000
Y2.65000
Y2.71000
Y2.78000
X1.54000Y1.01000
X0.93000Y1.27000
X1.33000
X1.37000Y1.18000
X1.10000Y0.94000
X4.03000Y1.03000
X3.94000Y1.30000
X4.00000Y0.94000
X3.98000Y1.26000
X4.07000Y1.10000
Y1.50000
X3.94000Y1.70000
X4.07000Y1.90000
X3.94000Y2.10000
X4.07000Y2.30000
X3.94000Y2.50000
X4.07000Y2.70000
X3.94000Y2.90000
X3.90000Y2.06000
Y1.74000
Y1.66000
Y1.34000
Y1.26000
X1.54000Y1.47000
X2.65000Y0.78000
X2.49000Y0.11000
X2.89000
X2.39000Y0.30000
X2.52000Y0.28000
X2.76000Y0.40000
X3.16000
X3.05000Y0.48000
X2.86000Y0.28000
X2.45000Y0.56000
Y0.78000
X2.60000
X1.96000Y0.80000
X1.69000Y0.51000
X1.96000Y0.40000
X1.69000Y0.11000
X1.02000Y1.02000
X1.38000Y0.96000
X1.74000Y3.77000
X0.97000Y1.18000
X1.73000Y3.62000
X1.38000Y3.33000
X1.73000Y3.22000
X2.68000Y0.33000
X3.08000
X1.43000Y1.89000
X1.97000
X2.63000
X3.17000
X1.55000Y1.92000
X1.85000
X2.90000
X2.40000Y1.97000
Y2.09000
X2.34000Y2.74000
X3.05000Y2.08000
X2.50000Y2.05000
Y1.93000
X2.40000Y2.76000
X2.55000Y0.62000
X1.94000Y2.74000
X1.90000Y3.28000
X2.72000Y1.84000
X2.39000Y0.40000
X2.14000Y3.77000
X2.06000Y3.71000
X2.54000Y3.77000
X2.46000Y3.71000
X2.76000Y2.69000
X1.21000Y3.16000
X1.03000Y1.93000
X1.00000Y2.08000
X1.14000Y1.01000
X3.06000Y1.84000
X3.50000Y0.90000
X1.80000Y2.24000
X1.65000Y2.29000
X1.35000Y1.32000
X1.38000Y1.11000
X1.86000Y3.00000
X5.00000Y2.60000
X5.20000
X5.00000Y2.70000
Y2.65000
X5.20000Y2.70000
Y2.65000
X5.00000Y2.90000
X5.10000
X5.20000
X5.00000Y3.00000
X5.10000
X5.20000
X5.00000Y3.10000
X5.10000
X5.20000
X5.00000Y3.20000
X5.10000
X5.20000
Y1.00000
Y1.05000
Y1.10000
X5.00000Y1.30000
X5.10000
X5.20000
X5.00000Y1.40000
X5.10000
X5.20000
X5.00000Y1.50000
X5.10000
X5.20000
X5.00000Y1.60000
X5.10000
X5.20000
X5.60000Y2.60000
X5.80000
X5.60000Y2.70000
Y2.65000
X5.80000Y2.70000
Y2.65000
X5.60000Y1.00000
Y1.10000
Y1.05000
X5.20000Y0.85000
X5.18000Y0.91000
X5.60000Y0.85000
X5.62000Y0.91000
X1.90000Y2.95000
X1.36000Y0.80000
X1.04000Y0.60000
X1.09000Y0.51000
X1.18000Y0.83000
X4.65000Y2.15000
Y2.25000
Y2.20000
Y2.35000
Y2.30000
Y2.40000
Y2.45000
Y2.50000
Y2.55000
Y2.65000
Y2.60000
Y2.70000
Y2.75000
Y2.80000
Y2.85000
Y2.90000
Y2.95000
Y3.00000
Y3.05000
Y1.65000
Y1.70000
Y1.75000
Y1.80000
Y1.85000
Y1.90000
Y1.55000
Y1.60000
Y1.45000
Y1.50000
Y1.35000
Y1.40000
Y1.25000
Y1.30000
Y1.15000
Y1.20000
Y1.05000
Y1.10000
X4.55000Y3.05000
Y2.95000
Y2.85000
Y2.75000
Y2.65000
Y2.55000
Y2.45000
Y2.35000
Y2.25000
Y2.15000
Y1.95000
Y1.85000
Y1.75000
Y1.65000
Y1.55000
Y1.45000
Y1.35000
Y1.25000
Y1.15000
Y1.05000
X3.90000Y2.46000
Y2.54000
Y2.86000
Y2.14000
X4.67000Y0.75000
X4.65000Y1.95000
X2.59000Y2.30000
X0.62000Y3.66000
Y2.66000
X0.58000Y2.71000
Y3.31000
Y2.31000
X4.60000Y0.45000
X4.65000
X4.70000
X4.82000Y0.50000
X4.97000
X3.82000Y0.46000
X4.05000Y0.55000
X4.10000
X0.58000Y3.71000
X1.80000Y2.44000
X1.54000Y2.74000
X1.75000Y2.76000
X1.73000Y2.52000
X2.25000Y1.93000
Y1.87000
X3.45000Y1.93000
Y1.87000
X1.65000Y2.95000
X1.75000Y3.00000
X1.10000Y1.31000
X0.97000Y1.44000
X2.41000Y1.69000
X1.88000Y1.38000
X0.97000Y0.96000
X1.88000Y0.73000
X1.74000
X1.88000Y0.33000
X1.52000Y0.66000
Y0.34000
X1.60000Y0.35000
X1.74000Y0.33000
X3.00000Y2.14000
X2.73000Y2.11000
X1.80000Y2.14000
X2.07000Y2.37000
X1.51000Y3.00000
Y2.95000
X1.37000Y3.00000
Y2.95000
X1.51000Y2.65000
X1.37000
X2.50000Y2.76000
X2.80000Y0.59000
Y0.69000
X2.07000Y0.50000
X2.75000Y1.20000
X1.90000Y0.85000
X1.28000Y0.73000
X5.96000Y1.09000
X5.24000Y1.05000
X5.36000Y1.08000
X5.30000Y0.96000
X5.40000Y2.78000
X5.44000Y2.82000
X5.36000
X1.43000Y3.65000
X1.33000Y3.78000
X3.37000Y3.33000
X3.33000Y3.42000
X3.16000Y3.59000
X3.27000Y3.74000
X3.33000
X3.37000Y2.83000
X3.33000Y2.92000
X3.16000Y3.09000
X3.27000Y3.24000
X3.33000
X3.27000Y2.37000
X3.40000Y2.44000
X3.33000Y2.52000
X3.14000Y2.74000
X3.35000Y2.76000
X3.78000Y0.50000
X4.78000Y0.46000
X3.97000Y0.54000
X3.50000Y1.20000
X3.48000Y2.85000
X3.03000Y2.55000
X3.17000Y2.95000
X4.04000Y3.22000
X3.96000Y3.37000
X3.95010Y3.44915
Y3.49915
X3.95000Y3.55000
X4.00000Y3.18000
T3
X3.30000Y1.90000
Y1.80000
Y2.00000
X2.00000Y3.30000
Y3.00000
X2.20000Y3.30000
Y3.40000
Y3.00000
X2.00000Y3.40000
X4.40000Y1.85000
Y1.75000
Y1.65000
Y1.55000
Y1.45000
Y1.35000
Y1.25000
Y1.15000
Y1.05000
Y1.95000
X1.30000Y1.86000
Y1.96000
X4.40000Y0.75000
Y0.65000
Y0.85000
X0.45000Y1.40000
Y1.50000
Y2.40000
Y2.50000
Y3.40000
Y3.50000
X0.39000Y3.05000
X0.19000Y2.95000
X0.69000
X0.39000Y2.05000
X0.19000Y1.95000
X0.69000
X0.39000Y0.80000
X0.19000Y0.70000
X0.69000
X0.39000Y0.55000
X0.19000Y0.45000
X0.69000
X0.39000Y0.30000
X0.19000Y0.20000
X0.69000
X0.39000Y1.05000
X0.19000Y0.95000
X0.69000
X3.00000Y3.10000
Y3.40000
X2.80000Y3.10000
Y3.00000
Y3.40000
X3.00000Y3.00000
X2.30000Y1.25000
X2.00000
X2.30000Y1.05000
X2.40000
X2.00000
X2.40000Y1.25000
X1.80000Y1.15000
Y1.05000
Y1.25000
X5.40000Y0.70000
X5.50000
X5.30000
X2.10000Y1.90000
Y1.80000
Y2.00000
X2.50000Y3.60000
X2.60000
X2.40000
X2.90000
X3.00000
X2.80000
X2.10000
X2.20000
X2.00000
X2.65000Y1.50000
Y1.40000
Y1.60000
Y1.05000
Y1.15000
X3.40000Y0.25000
Y0.35000
X1.70000Y2.90000
X1.80000
X1.60000
X3.70000Y3.45000
Y3.55000
Y2.95000
Y3.05000
X4.40000Y2.95000
Y2.85000
Y2.75000
Y2.65000
Y2.55000
Y2.45000
Y2.35000
Y2.25000
Y2.15000
Y3.05000
X2.60000Y3.40000
X2.40000Y3.30000
Y3.00000
X2.60000Y3.30000
Y3.00000
X2.40000Y3.40000
T4
X0.25000Y1.70000
Y1.30000
Y2.70000
Y2.30000
Y3.70000
Y3.30000
T5
X2.69000Y2.63000
Y2.70874
Y2.55126
M30
